# xmcd CD database file
#
# Track frame offsets:
#	150
#	16320
#	37625
#	55880
#	108305
#	134630
#	158740
#	172687
#	197932
#	226965
#	246982
#
# Disc length: 3585 seconds
#
# Revision: 0
# Processed by: cddbd v1.4PL0 Copyright (c) Steve Scherf et al.
# Submitted via: CDex 1.50beta10
#
DISCID=860dff0b
DTITLE=New Riders of the Purple Sage - Relix's Best of the Early...
DYEAR=1995
DGENRE=Country
TTITLE0=Henry
TTITLE1=Last Lonely Eagle
TTITLE2=Cecilia
TTITLE3=Dirty Business
TTITLE4=Honky Tonk
TTITLE5=Portland Woman
TTITLE6=Panama Red
TTITLE7=Glendale Train
TTITLE8=Nadine
TTITLE9=Singing Cowboy
TTITLE10=La Bamba
EXTD=YEAR: 1995
EXTT0=
EXTT1=
EXTT2=
EXTT3=
EXTT4=
EXTT5=
EXTT6=
EXTT7=
EXTT8=
EXTT9=
EXTT10=
PLAYORDER=
